<svg xmlns="http://www.w3.org/2000/svg" xmlns:xlink="http://www.w3.org/1999/xlink" width="50" zoomAndPan="magnify" viewBox="0 0 37.5 37.499999" height="50" preserveAspectRatio="xMidYMid meet" version="1.0"><defs><clipPath id="5c55ed72d9"><path d="M 10.3125 10.3125 L 27.5625 10.3125 L 27.5625 27.5625 L 10.3125 27.5625 Z M 10.3125 10.3125 " clip-rule="nonzero"/></clipPath></defs><g clip-path="url(#5c55ed72d9)"><path fill="#000000" d="M 18.9375 10.3125 C 14.183594 10.3125 10.3125 14.183594 10.3125 18.9375 C 10.3125 23.691406 14.183594 27.5625 18.9375 27.5625 C 23.691406 27.5625 27.5625 23.691406 27.5625 18.9375 C 27.5625 14.183594 23.691406 10.3125 18.9375 10.3125 Z M 18.9375 26.414062 C 14.816406 26.414062 11.460938 23.058594 11.460938 18.9375 C 11.460938 14.816406 14.816406 11.460938 18.9375 11.460938 C 23.058594 11.460938 26.414062 14.816406 26.414062 18.9375 C 26.414062 23.058594 23.058594 26.414062 18.9375 26.414062 Z M 18.9375 26.414062 " fill-opacity="1" fill-rule="nonzero"/></g><path fill="#000000" d="M 21.945312 18.363281 L 19.511719 18.363281 L 19.511719 15.929688 C 19.511719 15.613281 19.253906 15.355469 18.9375 15.355469 C 18.621094 15.355469 18.363281 15.613281 18.363281 15.929688 L 18.363281 18.363281 L 15.929688 18.363281 C 15.613281 18.363281 15.355469 18.621094 15.355469 18.9375 C 15.355469 19.253906 15.613281 19.511719 15.929688 19.511719 L 18.363281 19.511719 L 18.363281 21.945312 C 18.363281 22.261719 18.621094 22.519531 18.9375 22.519531 C 19.253906 22.519531 19.511719 22.261719 19.511719 21.945312 L 19.511719 19.511719 L 21.945312 19.511719 C 22.261719 19.511719 22.519531 19.253906 22.519531 18.9375 C 22.519531 18.621094 22.261719 18.363281 21.945312 18.363281 Z M 21.945312 18.363281 " fill-opacity="1" fill-rule="nonzero"/></svg>