<svg xmlns="http://www.w3.org/2000/svg" xmlns:xlink="http://www.w3.org/1999/xlink" width="50" zoomAndPan="magnify" viewBox="0 0 37.5 37.499999" height="50" preserveAspectRatio="xMidYMid meet" version="1.0"><defs><clipPath id="a655bc587d"><path d="M 11.25 11.25 L 26 11.25 L 26 26 L 11.25 26 Z M 11.25 11.25 " clip-rule="nonzero"/></clipPath></defs><g clip-path="url(#a655bc587d)"><path fill="#993aed" d="M 20.730469 18.105469 C 20.285156 17.660156 19.792969 17.167969 19.347656 16.722656 C 18.402344 15.777344 16.683594 15.886719 15.515625 17.054688 C 14.585938 17.984375 13.441406 19.128906 12.507812 20.0625 C 11.34375 21.226562 11.234375 22.945312 12.175781 23.890625 C 12.621094 24.335938 13.117188 24.828125 13.5625 25.273438 C 14.507812 26.21875 16.222656 26.109375 17.390625 24.941406 C 18.050781 24.28125 18.820312 23.511719 19.542969 22.789062 C 19.730469 22.601562 19.730469 22.300781 19.542969 22.113281 C 19.355469 21.925781 19.054688 21.925781 18.867188 22.113281 C 18.144531 22.835938 17.375 23.605469 16.714844 24.265625 C 15.957031 25.023438 14.851562 25.210938 14.238281 24.597656 C 14.238281 24.597656 12.855469 23.214844 12.855469 23.214844 C 12.242188 22.601562 12.429688 21.496094 13.1875 20.738281 C 14.117188 19.808594 15.261719 18.664062 16.195312 17.730469 C 16.953125 16.972656 18.054688 16.785156 18.667969 17.398438 C 18.667969 17.398438 20.054688 18.78125 20.054688 18.78125 C 20.238281 18.96875 20.542969 18.96875 20.730469 18.78125 C 20.917969 18.597656 20.917969 18.292969 20.730469 18.105469 Z M 16.722656 19.347656 C 17.167969 19.792969 17.660156 20.285156 18.105469 20.730469 C 19.050781 21.675781 20.769531 21.566406 21.933594 20.398438 C 22.867188 19.46875 24.011719 18.324219 24.941406 17.390625 C 26.109375 16.222656 26.21875 14.507812 25.273438 13.5625 C 24.828125 13.117188 24.335938 12.621094 23.890625 12.175781 C 22.945312 11.234375 21.226562 11.34375 20.0625 12.507812 C 19.398438 13.171875 18.632812 13.9375 17.90625 14.664062 C 17.722656 14.847656 17.722656 15.152344 17.90625 15.339844 C 18.09375 15.527344 18.398438 15.527344 18.585938 15.339844 C 19.308594 14.617188 20.078125 13.847656 20.738281 13.1875 C 21.496094 12.429688 22.601562 12.242188 23.214844 12.855469 C 23.214844 12.855469 24.597656 14.238281 24.597656 14.238281 C 25.210938 14.851562 25.023438 15.957031 24.265625 16.714844 C 23.332031 17.644531 22.191406 18.789062 21.257812 19.722656 C 20.5 20.480469 19.394531 20.667969 18.78125 20.054688 C 18.78125 20.054688 17.398438 18.667969 17.398438 18.667969 C 17.210938 18.480469 16.910156 18.480469 16.722656 18.667969 C 16.535156 18.855469 16.535156 19.160156 16.722656 19.347656 Z M 16.722656 19.347656 " fill-opacity="1" fill-rule="evenodd"/></g></svg>