<svg xmlns="http://www.w3.org/2000/svg" xmlns:xlink="http://www.w3.org/1999/xlink" width="50" zoomAndPan="magnify" viewBox="0 0 37.5 37.499999" height="50" preserveAspectRatio="xMidYMid meet" version="1.0"><defs><clipPath id="4fe135cb7e"><path d="M 14 6.601562 L 25 6.601562 L 25 27 L 14 27 Z M 14 6.601562 " clip-rule="nonzero"/></clipPath><clipPath id="85f74f2c07"><path d="M 8.101562 21 L 31.351562 21 L 31.351562 29.851562 L 8.101562 29.851562 Z M 8.101562 21 " clip-rule="nonzero"/></clipPath></defs><g clip-path="url(#4fe135cb7e)"><path fill="#993aed" d="M 19.089844 26.230469 C 19.097656 26.238281 19.109375 26.242188 19.117188 26.25 C 19.171875 26.308594 19.238281 26.359375 19.308594 26.398438 C 19.335938 26.417969 19.359375 26.4375 19.390625 26.453125 C 19.613281 26.558594 19.839844 26.558594 20.066406 26.453125 C 20.09375 26.4375 20.121094 26.417969 20.144531 26.398438 C 20.214844 26.359375 20.28125 26.308594 20.335938 26.25 C 20.34375 26.242188 20.355469 26.238281 20.363281 26.230469 L 24.515625 21.246094 C 24.664062 21.070312 24.726562 20.871094 24.707031 20.640625 C 24.683594 20.414062 24.585938 20.226562 24.410156 20.078125 C 24.234375 19.929688 24.03125 19.867188 23.804688 19.886719 C 23.574219 19.910156 23.386719 20.007812 23.242188 20.183594 L 20.558594 23.40625 L 20.558594 7.429688 C 20.558594 7.199219 20.476562 7.003906 20.3125 6.84375 C 20.152344 6.679688 19.957031 6.601562 19.726562 6.601562 C 19.496094 6.601562 19.300781 6.679688 19.140625 6.84375 C 18.976562 7.003906 18.894531 7.199219 18.894531 7.429688 L 18.894531 23.40625 L 16.210938 20.183594 C 16.066406 20.007812 15.878906 19.910156 15.648438 19.886719 C 15.421875 19.867188 15.21875 19.929688 15.042969 20.078125 C 14.867188 20.222656 14.769531 20.414062 14.746094 20.640625 C 14.726562 20.871094 14.789062 21.070312 14.9375 21.246094 Z M 19.089844 26.230469 " fill-opacity="1" fill-rule="nonzero"/></g><g clip-path="url(#85f74f2c07)"><path fill="#993aed" d="M 30.519531 21.546875 C 30.292969 21.546875 30.097656 21.628906 29.933594 21.789062 C 29.773438 21.953125 29.691406 22.148438 29.691406 22.375 L 29.691406 27.359375 C 29.691406 27.589844 29.609375 27.785156 29.449219 27.945312 C 29.285156 28.109375 29.089844 28.1875 28.859375 28.1875 L 10.59375 28.1875 C 10.363281 28.1875 10.167969 28.109375 10.003906 27.945312 C 9.84375 27.785156 9.761719 27.589844 9.761719 27.359375 L 9.761719 22.375 C 9.761719 22.148438 9.679688 21.953125 9.519531 21.789062 C 9.355469 21.628906 9.160156 21.546875 8.933594 21.546875 C 8.703125 21.546875 8.507812 21.628906 8.34375 21.789062 C 8.183594 21.953125 8.101562 22.148438 8.101562 22.375 L 8.101562 27.359375 C 8.101562 27.6875 8.164062 28.007812 8.292969 28.3125 C 8.417969 28.617188 8.597656 28.886719 8.832031 29.121094 C 9.066406 29.351562 9.335938 29.53125 9.640625 29.660156 C 9.945312 29.785156 10.261719 29.851562 10.59375 29.851562 L 28.859375 29.851562 C 29.191406 29.851562 29.507812 29.785156 29.8125 29.660156 C 30.117188 29.53125 30.386719 29.351562 30.621094 29.121094 C 30.855469 28.886719 31.035156 28.617188 31.160156 28.3125 C 31.289062 28.007812 31.351562 27.6875 31.351562 27.359375 L 31.351562 22.375 C 31.351562 22.148438 31.269531 21.953125 31.109375 21.789062 C 30.945312 21.628906 30.75 21.546875 30.519531 21.546875 Z M 30.519531 21.546875 " fill-opacity="1" fill-rule="nonzero"/></g></svg>