<svg xmlns="http://www.w3.org/2000/svg" xmlns:xlink="http://www.w3.org/1999/xlink" width="50" zoomAndPan="magnify" viewBox="0 0 37.5 37.499999" height="50" preserveAspectRatio="xMidYMid meet" version="1.0"><defs><clipPath id="9c2aebec67"><path d="M 15 11.136719 L 22 11.136719 L 22 24 L 15 24 Z M 15 11.136719 " clip-rule="nonzero"/></clipPath><clipPath id="18a3d0a982"><path d="M 11.136719 20 L 26.136719 20 L 26.136719 26.136719 L 11.136719 26.136719 Z M 11.136719 20 " clip-rule="nonzero"/></clipPath></defs><g clip-path="url(#9c2aebec67)"><path fill="#993aed" d="M 18.226562 23.800781 C 18.230469 23.808594 18.238281 23.808594 18.242188 23.816406 C 18.28125 23.855469 18.320312 23.886719 18.367188 23.910156 C 18.382812 23.925781 18.402344 23.933594 18.417969 23.945312 C 18.566406 24.015625 18.710938 24.015625 18.855469 23.945312 C 18.875 23.933594 18.890625 23.925781 18.90625 23.910156 C 18.953125 23.886719 18.996094 23.855469 19.03125 23.816406 C 19.035156 23.808594 19.042969 23.808594 19.050781 23.800781 L 21.726562 20.585938 C 21.824219 20.472656 21.863281 20.34375 21.851562 20.195312 C 21.835938 20.046875 21.773438 19.925781 21.660156 19.832031 C 21.546875 19.738281 21.414062 19.699219 21.269531 19.710938 C 21.121094 19.722656 21 19.789062 20.90625 19.902344 L 19.171875 21.980469 L 19.171875 11.671875 C 19.171875 11.523438 19.121094 11.398438 19.015625 11.292969 C 18.910156 11.191406 18.785156 11.136719 18.636719 11.136719 C 18.488281 11.136719 18.363281 11.191406 18.257812 11.292969 C 18.152344 11.398438 18.101562 11.523438 18.101562 11.671875 L 18.101562 21.980469 L 16.371094 19.902344 C 16.277344 19.789062 16.15625 19.722656 16.007812 19.710938 C 15.859375 19.695312 15.730469 19.738281 15.617188 19.832031 C 15.5 19.925781 15.4375 20.046875 15.425781 20.195312 C 15.410156 20.34375 15.453125 20.472656 15.546875 20.585938 Z M 18.226562 23.800781 " fill-opacity="1" fill-rule="nonzero"/></g><g clip-path="url(#18a3d0a982)"><path fill="#993aed" d="M 25.601562 20.78125 C 25.453125 20.78125 25.328125 20.832031 25.222656 20.9375 C 25.117188 21.042969 25.066406 21.167969 25.066406 21.316406 L 25.066406 24.53125 C 25.066406 24.679688 25.011719 24.804688 24.910156 24.910156 C 24.804688 25.011719 24.679688 25.066406 24.53125 25.066406 L 12.746094 25.066406 C 12.597656 25.066406 12.46875 25.011719 12.367188 24.910156 C 12.261719 24.804688 12.210938 24.679688 12.207031 24.53125 L 12.207031 21.316406 C 12.207031 21.167969 12.15625 21.042969 12.050781 20.9375 C 11.949219 20.832031 11.820312 20.78125 11.671875 20.78125 C 11.523438 20.78125 11.398438 20.832031 11.292969 20.9375 C 11.191406 21.042969 11.136719 21.167969 11.136719 21.316406 L 11.136719 24.53125 C 11.136719 24.742188 11.179688 24.949219 11.261719 25.144531 C 11.34375 25.34375 11.457031 25.515625 11.609375 25.667969 C 11.757812 25.816406 11.933594 25.933594 12.128906 26.015625 C 12.328125 26.097656 12.53125 26.136719 12.746094 26.136719 L 24.53125 26.136719 C 24.742188 26.136719 24.949219 26.097656 25.144531 26.015625 C 25.34375 25.933594 25.515625 25.816406 25.667969 25.667969 C 25.816406 25.515625 25.933594 25.34375 26.015625 25.144531 C 26.097656 24.949219 26.136719 24.742188 26.136719 24.53125 L 26.136719 21.316406 C 26.136719 21.167969 26.085938 21.042969 25.980469 20.9375 C 25.875 20.832031 25.75 20.78125 25.601562 20.78125 Z M 25.601562 20.78125 " fill-opacity="1" fill-rule="nonzero"/></g></svg>