<svg xmlns="http://www.w3.org/2000/svg" xmlns:xlink="http://www.w3.org/1999/xlink" width="50" zoomAndPan="magnify" viewBox="0 0 37.5 37.499999" height="50" preserveAspectRatio="xMidYMid meet" version="1.0"><defs><clipPath id="6384430e17"><path d="M 11.25 16.875 L 26.25 16.875 L 26.25 20.625 L 11.25 20.625 Z M 11.25 16.875 " clip-rule="nonzero"/></clipPath></defs><g clip-path="url(#6384430e17)"><path fill="#a6a6a6" d="M 13.125 16.875 C 12.089844 16.875 11.25 17.714844 11.25 18.75 C 11.25 19.785156 12.089844 20.625 13.125 20.625 C 14.160156 20.625 15 19.785156 15 18.75 C 15 17.714844 14.160156 16.875 13.125 16.875 Z M 24.375 16.875 C 23.339844 16.875 22.5 17.714844 22.5 18.75 C 22.5 19.785156 23.339844 20.625 24.375 20.625 C 25.410156 20.625 26.25 19.785156 26.25 18.75 C 26.25 17.714844 25.410156 16.875 24.375 16.875 Z M 18.75 16.875 C 17.714844 16.875 16.875 17.714844 16.875 18.75 C 16.875 19.785156 17.714844 20.625 18.75 20.625 C 19.785156 20.625 20.625 19.785156 20.625 18.75 C 20.625 17.714844 19.785156 16.875 18.75 16.875 Z M 18.75 16.875 " fill-opacity="1" fill-rule="nonzero"/></g></svg>