<svg xmlns="http://www.w3.org/2000/svg" xmlns:xlink="http://www.w3.org/1999/xlink" width="50" zoomAndPan="magnify" viewBox="0 0 37.5 37.499999" height="50" preserveAspectRatio="xMidYMid meet" version="1.0"><defs><clipPath id="b61c389964"><path d="M 11.238281 13 L 20 13 L 20 24 L 11.238281 24 Z M 11.238281 13 " clip-rule="nonzero"/></clipPath></defs><g clip-path="url(#b61c389964)"><path fill="#8a8a8a" d="M 13.621094 13.617188 C 12.734375 12.929688 11.417969 13.542969 11.417969 14.644531 L 11.417969 22.433594 C 11.417969 23.539062 12.734375 24.152344 13.621094 23.460938 L 18.636719 19.566406 C 19.316406 19.039062 19.316406 18.039062 18.636719 17.511719 Z M 13.621094 13.617188 " fill-opacity="1" fill-rule="evenodd"/></g><path fill="#8a8a8a" d="M 18.195312 18.015625 L 18.195312 19.066406 L 18.214844 19.054688 C 18.550781 18.789062 18.550781 18.289062 18.214844 18.027344 Z M 18.195312 16.328125 L 19.058594 17 C 20.078125 17.789062 20.078125 19.292969 19.058594 20.082031 L 18.195312 20.75 L 18.195312 22.433594 C 18.195312 23.539062 19.511719 24.152344 20.398438 23.460938 L 25.414062 19.566406 C 26.09375 19.039062 26.09375 18.039062 25.414062 17.511719 L 20.398438 13.617188 C 19.511719 12.929688 18.195312 13.542969 18.195312 14.644531 Z M 18.195312 16.328125 " fill-opacity="1" fill-rule="evenodd"/></svg>