<svg xmlns="http://www.w3.org/2000/svg" xmlns:xlink="http://www.w3.org/1999/xlink" width="50" zoomAndPan="magnify" viewBox="0 0 37.5 37.499999" height="50" preserveAspectRatio="xMidYMid meet" version="1.0"><defs><clipPath id="05c00ca31a"><path d="M 12.910156 11.066406 L 18 11.066406 L 18 26.066406 L 12.910156 26.066406 Z M 12.910156 11.066406 " clip-rule="nonzero"/></clipPath><clipPath id="f0b21fc431"><path d="M 20 11.066406 L 24.910156 11.066406 L 24.910156 26.066406 L 20 26.066406 Z M 20 11.066406 " clip-rule="nonzero"/></clipPath></defs><g clip-path="url(#05c00ca31a)"><path fill="#993aed" d="M 14.394531 11.050781 L 16.304688 11.050781 C 16.5 11.050781 16.6875 11.085938 16.867188 11.15625 C 17.046875 11.230469 17.207031 11.328125 17.34375 11.460938 C 17.480469 11.589844 17.589844 11.742188 17.664062 11.914062 C 17.738281 12.082031 17.773438 12.261719 17.773438 12.445312 L 17.773438 24.65625 C 17.773438 24.839844 17.738281 25.019531 17.664062 25.1875 C 17.589844 25.359375 17.480469 25.511719 17.34375 25.640625 C 17.207031 25.773438 17.046875 25.871094 16.867188 25.945312 C 16.6875 26.015625 16.5 26.050781 16.304688 26.050781 L 14.394531 26.050781 C 14.199219 26.050781 14.011719 26.015625 13.832031 25.945312 C 13.652344 25.871094 13.492188 25.773438 13.355469 25.640625 C 13.21875 25.511719 13.113281 25.359375 13.039062 25.1875 C 12.964844 25.019531 12.925781 24.839844 12.925781 24.65625 L 12.925781 12.445312 C 12.925781 12.261719 12.964844 12.082031 13.039062 11.914062 C 13.113281 11.742188 13.21875 11.589844 13.355469 11.460938 C 13.492188 11.328125 13.652344 11.230469 13.832031 11.15625 C 14.011719 11.085938 14.199219 11.050781 14.394531 11.050781 Z M 14.394531 11.050781 " fill-opacity="1" fill-rule="nonzero"/></g><g clip-path="url(#f0b21fc431)"><path fill="#993aed" d="M 21.550781 11.050781 L 23.460938 11.050781 C 23.65625 11.050781 23.84375 11.085938 24.023438 11.15625 C 24.203125 11.230469 24.363281 11.328125 24.5 11.460938 C 24.636719 11.589844 24.746094 11.742188 24.820312 11.914062 C 24.894531 12.082031 24.929688 12.261719 24.929688 12.445312 L 24.929688 24.65625 C 24.929688 24.839844 24.894531 25.019531 24.820312 25.1875 C 24.746094 25.359375 24.636719 25.511719 24.5 25.640625 C 24.363281 25.773438 24.203125 25.871094 24.023438 25.945312 C 23.84375 26.015625 23.65625 26.050781 23.460938 26.050781 L 21.550781 26.050781 C 21.355469 26.050781 21.167969 26.015625 20.988281 25.945312 C 20.808594 25.871094 20.648438 25.773438 20.511719 25.640625 C 20.375 25.511719 20.269531 25.359375 20.195312 25.1875 C 20.121094 25.019531 20.082031 24.839844 20.082031 24.65625 L 20.082031 12.445312 C 20.082031 12.261719 20.121094 12.082031 20.195312 11.914062 C 20.269531 11.742188 20.375 11.589844 20.511719 11.460938 C 20.648438 11.328125 20.808594 11.230469 20.988281 11.15625 C 21.167969 11.085938 21.355469 11.050781 21.550781 11.050781 Z M 21.550781 11.050781 " fill-opacity="1" fill-rule="nonzero"/></g></svg>