<svg xmlns="http://www.w3.org/2000/svg" xmlns:xlink="http://www.w3.org/1999/xlink" width="50" zoomAndPan="magnify" viewBox="0 0 37.5 37.499999" height="50" preserveAspectRatio="xMidYMid meet" version="1.0"><defs><clipPath id="98f0cea636"><path d="M 18 13 L 26.238281 13 L 26.238281 24 L 18 24 Z M 18 13 " clip-rule="nonzero"/></clipPath><clipPath id="630c7923f7"><path d="M 11.25 13 L 20 13 L 20 24 L 11.25 24 Z M 11.25 13 " clip-rule="nonzero"/></clipPath></defs><g clip-path="url(#98f0cea636)"><path fill="#8a8a8a" d="M 23.871094 13.617188 C 24.757812 12.929688 26.074219 13.542969 26.074219 14.644531 L 26.074219 22.433594 C 26.074219 23.539062 24.757812 24.152344 23.871094 23.460938 L 18.855469 19.566406 C 18.175781 19.039062 18.175781 18.039062 18.855469 17.511719 Z M 23.871094 13.617188 " fill-opacity="1" fill-rule="evenodd"/></g><g clip-path="url(#630c7923f7)"><path fill="#8a8a8a" d="M 19.292969 18.015625 L 19.292969 19.066406 L 19.277344 19.054688 C 18.9375 18.789062 18.9375 18.289062 19.277344 18.027344 Z M 19.292969 16.328125 L 18.429688 17 C 17.414062 17.789062 17.414062 19.292969 18.429688 20.082031 L 19.292969 20.75 L 19.292969 22.433594 C 19.292969 23.539062 17.976562 24.152344 17.089844 23.460938 L 12.074219 19.566406 C 11.394531 19.039062 11.394531 18.039062 12.074219 17.511719 L 17.089844 13.617188 C 17.976562 12.929688 19.292969 13.542969 19.292969 14.644531 Z M 19.292969 16.328125 " fill-opacity="1" fill-rule="evenodd"/></g></svg>