<svg xmlns="http://www.w3.org/2000/svg" xmlns:xlink="http://www.w3.org/1999/xlink" width="50" zoomAndPan="magnify" viewBox="0 0 37.5 37.499999" height="50" preserveAspectRatio="xMidYMid meet" version="1.0"><defs><clipPath id="e8570454a2"><path d="M 13.148438 11.160156 L 24.398438 11.160156 L 24.398438 26.160156 L 13.148438 26.160156 Z M 13.148438 11.160156 " clip-rule="nonzero"/></clipPath></defs><g clip-path="url(#e8570454a2)"><path fill="#993aed" d="M 18.773438 19.492188 C 18.914062 19.492188 19.050781 19.550781 19.148438 19.660156 L 23.324219 24.171875 L 23.324219 12.292969 L 14.222656 12.292969 L 14.222656 24.171875 L 18.398438 19.660156 C 18.496094 19.550781 18.628906 19.492188 18.773438 19.492188 M 13.691406 26.117188 C 13.625 26.117188 13.554688 26.105469 13.492188 26.074219 C 13.292969 25.988281 13.164062 25.78125 13.164062 25.550781 L 13.164062 11.726562 C 13.164062 11.414062 13.402344 11.160156 13.691406 11.160156 L 23.851562 11.160156 C 24.144531 11.160156 24.378906 11.414062 24.378906 11.726562 L 24.378906 25.550781 C 24.378906 25.78125 24.25 25.988281 24.054688 26.074219 C 23.855469 26.164062 23.625 26.113281 23.476562 25.949219 L 18.773438 20.863281 L 14.070312 25.949219 C 13.96875 26.058594 13.832031 26.117188 13.691406 26.117188 " fill-opacity="1" fill-rule="nonzero"/></g></svg>