<svg xmlns="http://www.w3.org/2000/svg" xmlns:xlink="http://www.w3.org/1999/xlink" width="50" zoomAndPan="magnify" viewBox="0 0 37.5 37.499999" height="50" preserveAspectRatio="xMidYMid meet" version="1.0"><defs><clipPath id="0f34ac4319"><path d="M 13.148438 11.160156 L 24.398438 11.160156 L 24.398438 26.160156 L 13.148438 26.160156 Z M 13.148438 11.160156 " clip-rule="nonzero"/></clipPath><clipPath id="91ae6f2968"><path d="M 13.148438 12.210938 L 24.351562 12.210938 L 24.351562 20.160156 L 13.148438 20.160156 Z M 13.148438 12.210938 " clip-rule="nonzero"/></clipPath><clipPath id="15e06eeafd"><path d="M 14 18.75 L 19.90625 18.75 L 19.90625 24.410156 L 14 24.410156 Z M 14 18.75 " clip-rule="nonzero"/></clipPath><clipPath id="2d0987c055"><path d="M 13.90625 18.75 L 19.90625 18.75 L 19.90625 24.410156 L 13.90625 24.410156 Z M 13.90625 18.75 " clip-rule="nonzero"/></clipPath><clipPath id="f0435a3284"><path d="M 17.601562 19.078125 L 24.023438 19.078125 L 24.023438 25.5 L 17.601562 25.5 Z M 17.601562 19.078125 " clip-rule="nonzero"/></clipPath></defs><g clip-path="url(#0f34ac4319)"><path fill="#993aed" d="M 18.773438 19.492188 C 18.914062 19.492188 19.050781 19.550781 19.148438 19.660156 L 23.324219 24.171875 L 23.324219 12.292969 L 14.222656 12.292969 L 14.222656 24.171875 L 18.398438 19.660156 C 18.496094 19.550781 18.628906 19.492188 18.773438 19.492188 M 13.691406 26.117188 C 13.625 26.117188 13.554688 26.105469 13.492188 26.074219 C 13.292969 25.988281 13.164062 25.78125 13.164062 25.550781 L 13.164062 11.726562 C 13.164062 11.414062 13.402344 11.160156 13.691406 11.160156 L 23.851562 11.160156 C 24.144531 11.160156 24.378906 11.414062 24.378906 11.726562 L 24.378906 25.550781 C 24.378906 25.78125 24.25 25.988281 24.054688 26.074219 C 23.855469 26.164062 23.625 26.113281 23.476562 25.949219 L 18.773438 20.863281 L 14.070312 25.949219 C 13.96875 26.058594 13.832031 26.117188 13.691406 26.117188 " fill-opacity="1" fill-rule="nonzero"/></g><g clip-path="url(#91ae6f2968)"><path fill="#993aed" d="M 13.148438 12.210938 L 24.398438 12.210938 L 24.398438 20.121094 L 13.148438 20.121094 Z M 13.148438 12.210938 " fill-opacity="1" fill-rule="nonzero"/></g><g clip-path="url(#15e06eeafd)"><path fill="#993aed" d="M 14.054688 24.242188 L 14.054688 18.539062 L 19.757812 18.539062 Z M 14.054688 24.242188 " fill-opacity="1" fill-rule="nonzero"/></g><g clip-path="url(#2d0987c055)"><path fill="#993aed" d="M 19.757812 18.410156 L 14.054688 18.410156 C 13.960938 18.410156 13.90625 18.464844 13.90625 18.539062 L 13.90625 24.242188 C 13.90625 24.296875 13.941406 24.355469 14 24.371094 C 14.035156 24.410156 14.109375 24.390625 14.148438 24.355469 L 19.847656 18.652344 C 19.886719 18.617188 19.90625 18.558594 19.886719 18.503906 C 19.847656 18.449219 19.8125 18.410156 19.757812 18.410156 Z M 14.1875 18.691406 L 19.402344 18.691406 L 14.1875 23.90625 Z M 14.1875 18.691406 " fill-opacity="1" fill-rule="nonzero"/></g><g clip-path="url(#f0435a3284)"><path fill="#993aed" d="M 24.183594 25.640625 L 24.183594 19.226562 L 17.769531 19.226562 Z M 24.183594 25.640625 " fill-opacity="1" fill-rule="nonzero"/><path fill="#993aed" d="M 17.769531 19.078125 L 24.183594 19.078125 C 24.289062 19.078125 24.351562 19.140625 24.351562 19.226562 L 24.351562 25.640625 C 24.351562 25.703125 24.308594 25.765625 24.246094 25.785156 C 24.203125 25.828125 24.121094 25.808594 24.078125 25.765625 L 17.664062 19.351562 C 17.621094 19.308594 17.601562 19.246094 17.621094 19.183594 C 17.664062 19.121094 17.707031 19.078125 17.769531 19.078125 Z M 24.035156 19.394531 L 18.167969 19.394531 L 24.035156 25.261719 Z M 24.035156 19.394531 " fill-opacity="1" fill-rule="nonzero"/></g></svg>