<svg xmlns="http://www.w3.org/2000/svg" xmlns:xlink="http://www.w3.org/1999/xlink" width="50" zoomAndPan="magnify" viewBox="0 0 37.5 37.499999" height="50" preserveAspectRatio="xMidYMid meet" version="1.0"><defs><clipPath id="3e25b8b8f6"><path d="M 9.289062 6.304688 L 17 6.304688 L 17 31.054688 L 9.289062 31.054688 Z M 9.289062 6.304688 " clip-rule="nonzero"/></clipPath><clipPath id="94632b4369"><path d="M 20 6.304688 L 28.039062 6.304688 L 28.039062 31.054688 L 20 31.054688 Z M 20 6.304688 " clip-rule="nonzero"/></clipPath><clipPath id="70432617e1"><path d="M 10.191406 5.832031 L 28.941406 5.832031 L 28.941406 31.332031 L 10.191406 31.332031 Z M 10.191406 5.832031 " clip-rule="nonzero"/></clipPath></defs><g clip-path="url(#3e25b8b8f6)"><path fill="#ffffff" d="M 11.609375 6.277344 L 14.597656 6.277344 C 14.902344 6.277344 15.195312 6.335938 15.472656 6.453125 C 15.753906 6.570312 16.003906 6.738281 16.21875 6.953125 C 16.433594 7.167969 16.597656 7.417969 16.714844 7.699219 C 16.832031 7.980469 16.890625 8.273438 16.890625 8.578125 L 16.890625 28.722656 C 16.890625 29.03125 16.832031 29.324219 16.714844 29.605469 C 16.597656 29.886719 16.433594 30.136719 16.21875 30.351562 C 16.003906 30.566406 15.753906 30.734375 15.472656 30.847656 C 15.195312 30.964844 14.902344 31.023438 14.597656 31.023438 L 11.609375 31.023438 C 11.304688 31.023438 11.011719 30.964844 10.730469 30.847656 C 10.449219 30.734375 10.203125 30.566406 9.988281 30.351562 C 9.773438 30.136719 9.609375 29.886719 9.492188 29.605469 C 9.375 29.324219 9.316406 29.03125 9.316406 28.722656 L 9.316406 8.578125 C 9.316406 8.273438 9.375 7.980469 9.492188 7.699219 C 9.609375 7.417969 9.773438 7.167969 9.988281 6.953125 C 10.203125 6.738281 10.449219 6.570312 10.730469 6.453125 C 11.011719 6.335938 11.304688 6.277344 11.609375 6.277344 Z M 11.609375 6.277344 " fill-opacity="1" fill-rule="nonzero"/></g><g clip-path="url(#94632b4369)"><path fill="#ffffff" d="M 22.789062 6.277344 L 25.777344 6.277344 C 26.082031 6.277344 26.371094 6.335938 26.652344 6.453125 C 26.933594 6.570312 27.183594 6.738281 27.398438 6.953125 C 27.613281 7.167969 27.777344 7.417969 27.894531 7.699219 C 28.011719 7.980469 28.070312 8.273438 28.070312 8.578125 L 28.070312 28.722656 C 28.070312 29.03125 28.011719 29.324219 27.894531 29.605469 C 27.777344 29.886719 27.613281 30.136719 27.398438 30.351562 C 27.183594 30.566406 26.933594 30.734375 26.652344 30.847656 C 26.371094 30.964844 26.082031 31.023438 25.777344 31.023438 L 22.789062 31.023438 C 22.484375 31.023438 22.191406 30.964844 21.910156 30.847656 C 21.628906 30.734375 21.382812 30.566406 21.167969 30.351562 C 20.953125 30.136719 20.785156 29.886719 20.671875 29.605469 C 20.554688 29.324219 20.496094 29.03125 20.496094 28.722656 L 20.496094 8.578125 C 20.496094 8.273438 20.554688 7.980469 20.671875 7.699219 C 20.785156 7.417969 20.953125 7.167969 21.167969 6.953125 C 21.382812 6.738281 21.628906 6.570312 21.910156 6.453125 C 22.191406 6.335938 22.484375 6.277344 22.789062 6.277344 Z M 22.789062 6.277344 " fill-opacity="1" fill-rule="nonzero"/></g><g clip-path="url(#70432617e1)"><path fill="#993aed" d="M 19.566406 19.996094 C 19.800781 19.996094 20.027344 20.097656 20.195312 20.28125 L 27.152344 27.953125 L 27.152344 7.757812 L 11.984375 7.757812 L 11.984375 27.957031 L 18.941406 20.28125 C 19.105469 20.097656 19.328125 19.996094 19.566406 19.996094 M 11.097656 31.261719 C 10.984375 31.261719 10.871094 31.238281 10.765625 31.1875 C 10.433594 31.039062 10.21875 30.6875 10.21875 30.296875 L 10.21875 6.792969 C 10.21875 6.261719 10.613281 5.832031 11.097656 5.832031 L 28.03125 5.832031 C 28.519531 5.832031 28.914062 6.261719 28.914062 6.792969 L 28.914062 30.296875 C 28.914062 30.6875 28.699219 31.039062 28.367188 31.1875 C 28.035156 31.335938 27.65625 31.253906 27.40625 30.972656 L 19.566406 22.328125 L 11.726562 30.972656 C 11.558594 31.160156 11.332031 31.261719 11.097656 31.261719 " fill-opacity="1" fill-rule="nonzero"/></g></svg>