<svg xmlns="http://www.w3.org/2000/svg" xmlns:xlink="http://www.w3.org/1999/xlink" width="50" zoomAndPan="magnify" viewBox="0 0 37.5 37.499999" height="50" preserveAspectRatio="xMidYMid meet" version="1.0"><defs><clipPath id="775659593f"><path d="M 10.257812 8.183594 L 27.507812 8.183594 L 27.507812 29.183594 L 10.257812 29.183594 Z M 10.257812 8.183594 " clip-rule="nonzero"/></clipPath></defs><g clip-path="url(#775659593f)"><path fill="#000000" d="M 25.546875 29.140625 L 12.226562 29.140625 C 11.96875 29.140625 11.71875 29.097656 11.480469 29 C 11.238281 28.90625 11.027344 28.769531 10.84375 28.59375 C 10.660156 28.417969 10.515625 28.214844 10.414062 27.980469 C 10.3125 27.75 10.261719 27.507812 10.257812 27.253906 L 10.257812 16.746094 C 10.261719 16.496094 10.3125 16.253906 10.414062 16.019531 C 10.515625 15.789062 10.660156 15.582031 10.84375 15.40625 C 11.027344 15.230469 11.238281 15.09375 11.480469 15 C 11.71875 14.90625 11.96875 14.859375 12.226562 14.859375 L 15.746094 14.859375 C 15.910156 14.859375 16.050781 14.917969 16.167969 15.03125 C 16.285156 15.148438 16.34375 15.285156 16.34375 15.449219 C 16.34375 15.609375 16.285156 15.746094 16.167969 15.863281 C 16.050781 15.976562 15.910156 16.035156 15.746094 16.035156 L 12.226562 16.035156 C 12.019531 16.027344 11.839844 16.09375 11.691406 16.234375 C 11.539062 16.375 11.460938 16.542969 11.457031 16.746094 L 11.457031 27.253906 C 11.460938 27.457031 11.539062 27.628906 11.691406 27.765625 C 11.839844 27.90625 12.019531 27.972656 12.226562 27.96875 L 25.546875 27.96875 C 25.753906 27.972656 25.933594 27.90625 26.082031 27.765625 C 26.234375 27.628906 26.308594 27.457031 26.316406 27.253906 L 26.316406 16.746094 C 26.308594 16.542969 26.234375 16.375 26.082031 16.234375 C 25.933594 16.09375 25.753906 16.027344 25.546875 16.035156 L 21.765625 16.035156 C 21.601562 16.035156 21.460938 15.976562 21.34375 15.863281 C 21.226562 15.746094 21.167969 15.609375 21.167969 15.449219 C 21.167969 15.285156 21.226562 15.148438 21.34375 15.03125 C 21.460938 14.917969 21.601562 14.859375 21.765625 14.859375 L 25.546875 14.859375 C 25.804688 14.859375 26.054688 14.90625 26.292969 15 C 26.53125 15.097656 26.742188 15.230469 26.925781 15.410156 C 27.109375 15.585938 27.253906 15.789062 27.351562 16.019531 C 27.453125 16.253906 27.507812 16.496094 27.507812 16.746094 L 27.507812 27.253906 C 27.507812 27.507812 27.453125 27.75 27.351562 27.980469 C 27.253906 28.210938 27.109375 28.417969 26.925781 28.59375 C 26.742188 28.769531 26.53125 28.90625 26.292969 29 C 26.054688 29.09375 25.804688 29.140625 25.546875 29.140625 Z M 18.933594 22.046875 C 18.765625 22.046875 18.625 21.992188 18.507812 21.875 C 18.390625 21.761719 18.332031 21.625 18.332031 21.460938 L 18.332031 10.285156 L 15.410156 13.082031 C 15.292969 13.195312 15.148438 13.253906 14.984375 13.25 C 14.820312 13.25 14.679688 13.191406 14.5625 13.074219 C 14.445312 12.960938 14.390625 12.820312 14.390625 12.660156 C 14.394531 12.496094 14.453125 12.359375 14.570312 12.246094 L 18.605469 8.386719 C 18.640625 8.351562 18.683594 8.324219 18.726562 8.300781 C 18.824219 8.242188 18.925781 8.214844 19.039062 8.21875 C 19.132812 8.222656 19.21875 8.242188 19.300781 8.285156 C 19.351562 8.3125 19.394531 8.34375 19.4375 8.382812 L 23.394531 12.25 C 23.507812 12.363281 23.5625 12.503906 23.5625 12.664062 C 23.558594 12.820312 23.5 12.957031 23.386719 13.070312 C 23.269531 13.183594 23.128906 13.242188 22.96875 13.242188 C 22.804688 13.246094 22.664062 13.191406 22.546875 13.078125 L 19.53125 10.128906 L 19.53125 21.460938 C 19.53125 21.625 19.472656 21.761719 19.355469 21.875 C 19.238281 21.992188 19.097656 22.046875 18.933594 22.046875 Z M 18.933594 22.046875 " fill-opacity="1" fill-rule="nonzero"/></g></svg>