<svg xmlns="http://www.w3.org/2000/svg" xmlns:xlink="http://www.w3.org/1999/xlink" width="50" zoomAndPan="magnify" viewBox="0 0 37.5 37.499999" height="50" preserveAspectRatio="xMidYMid meet" version="1.0"><defs><clipPath id="38ba422a32"><path d="M 11.242188 12.011719 L 26.242188 12.011719 L 26.242188 25.511719 L 11.242188 25.511719 Z M 11.242188 12.011719 " clip-rule="nonzero"/></clipPath></defs><g clip-path="url(#38ba422a32)"><path fill="#1d1e1f" d="M 17.96875 13.058594 C 19.582031 13.058594 21.039062 13.734375 22.078125 14.820312 C 22.460938 15.21875 22.785156 15.671875 23.039062 16.171875 L 19.347656 16.171875 C 19.066406 16.171875 18.832031 16.402344 18.832031 16.691406 C 18.832031 16.980469 19.0625 17.210938 19.347656 17.210938 L 24.691406 17.210938 L 24.691406 12.539062 C 24.691406 12.253906 24.460938 12.019531 24.175781 12.019531 C 23.890625 12.019531 23.65625 12.25 23.65625 12.539062 L 23.65625 15.167969 C 23.410156 14.78125 23.132812 14.425781 22.820312 14.097656 C 21.59375 12.820312 19.871094 12.023438 17.964844 12.023438 C 14.253906 12.019531 11.242188 15.039062 11.242188 18.761719 C 11.242188 22.484375 14.253906 25.503906 17.96875 25.503906 L 17.96875 24.46875 C 14.824219 24.46875 12.28125 21.914062 12.28125 18.765625 C 12.273438 15.609375 14.824219 13.058594 17.96875 13.058594 Z M 23.617188 24.839844 C 23.839844 24.933594 24.109375 24.984375 24.425781 24.984375 C 24.742188 24.984375 25.007812 24.933594 25.230469 24.839844 C 25.460938 24.746094 25.644531 24.617188 25.789062 24.449219 C 25.929688 24.285156 26.035156 24.09375 26.109375 23.878906 C 26.179688 23.660156 26.21875 23.425781 26.230469 23.179688 C 26.238281 23.058594 26.242188 22.925781 26.242188 22.78125 L 26.242188 22.335938 C 26.242188 22.191406 26.238281 22.054688 26.230469 21.925781 C 26.222656 21.679688 26.175781 21.453125 26.105469 21.234375 C 26.03125 21.015625 25.925781 20.824219 25.773438 20.664062 C 25.632812 20.5 25.449219 20.375 25.226562 20.28125 C 25.003906 20.1875 24.738281 20.140625 24.425781 20.140625 C 24.117188 20.140625 23.855469 20.1875 23.628906 20.28125 C 23.40625 20.375 23.226562 20.503906 23.074219 20.664062 C 22.933594 20.824219 22.824219 21.015625 22.746094 21.234375 C 22.667969 21.453125 22.628906 21.683594 22.621094 21.925781 C 22.617188 22.054688 22.613281 22.191406 22.609375 22.335938 L 22.609375 22.785156 C 22.613281 22.925781 22.617188 23.0625 22.621094 23.183594 C 22.632812 23.429688 22.679688 23.664062 22.746094 23.882812 C 22.820312 24.097656 22.925781 24.289062 23.066406 24.457031 C 23.214844 24.617188 23.394531 24.746094 23.617188 24.839844 Z M 25.0625 23.925781 C 24.929688 24.113281 24.71875 24.207031 24.429688 24.207031 C 24.148438 24.207031 23.9375 24.113281 23.800781 23.925781 C 23.664062 23.734375 23.589844 23.476562 23.582031 23.144531 C 23.582031 23.015625 23.578125 22.886719 23.574219 22.757812 L 23.574219 22.355469 C 23.578125 22.21875 23.582031 22.089844 23.582031 21.972656 C 23.589844 21.65625 23.664062 21.398438 23.796875 21.203125 C 23.933594 21.003906 24.144531 20.90625 24.429688 20.90625 C 24.71875 20.90625 24.933594 21.003906 25.0625 21.203125 C 25.199219 21.394531 25.273438 21.652344 25.277344 21.972656 C 25.285156 22.09375 25.289062 22.21875 25.289062 22.355469 L 25.289062 22.757812 C 25.289062 22.886719 25.285156 23.015625 25.277344 23.144531 C 25.269531 23.476562 25.199219 23.734375 25.0625 23.925781 Z M 20.941406 24.871094 C 20.976562 24.902344 21.015625 24.917969 21.066406 24.917969 L 21.671875 24.917969 C 21.71875 24.917969 21.753906 24.902344 21.785156 24.871094 C 21.820312 24.835938 21.835938 24.800781 21.835938 24.757812 L 21.835938 20.371094 C 21.835938 20.324219 21.820312 20.289062 21.785156 20.257812 C 21.753906 20.222656 21.71875 20.207031 21.671875 20.207031 L 21.085938 20.207031 C 21.050781 20.207031 21.023438 20.210938 21 20.214844 C 20.972656 20.21875 20.945312 20.230469 20.917969 20.257812 L 19.421875 21.417969 C 19.382812 21.449219 19.359375 21.480469 19.347656 21.523438 C 19.34375 21.570312 19.359375 21.613281 19.382812 21.652344 L 19.660156 22.011719 C 19.695312 22.054688 19.726562 22.078125 19.765625 22.085938 C 19.808594 22.089844 19.847656 22.078125 19.890625 22.054688 L 20.902344 21.265625 L 20.902344 24.746094 C 20.902344 24.800781 20.914062 24.835938 20.941406 24.871094 Z M 20.941406 24.871094 " fill-opacity="1" fill-rule="evenodd"/></g></svg>