<svg xmlns="http://www.w3.org/2000/svg" xmlns:xlink="http://www.w3.org/1999/xlink" width="50" zoomAndPan="magnify" viewBox="0 0 37.5 37.499999" height="50" preserveAspectRatio="xMidYMid meet" version="1.0"><defs><clipPath id="3d12d7711f"><path d="M 11.25 12.011719 L 26.25 12.011719 L 26.25 25.511719 L 11.25 25.511719 Z M 11.25 12.011719 " clip-rule="nonzero"/></clipPath></defs><g clip-path="url(#3d12d7711f)"><path fill="#1d1e1f" d="M 13.3125 12.015625 C 13.597656 12.015625 13.832031 12.25 13.832031 12.539062 L 13.832031 15.167969 C 14.074219 14.78125 14.355469 14.425781 14.664062 14.097656 C 15.886719 12.820312 17.613281 12.019531 19.523438 12.019531 C 23.238281 12.019531 26.25 15.039062 26.25 18.765625 C 26.25 22.488281 23.238281 25.507812 19.523438 25.507812 L 19.523438 24.472656 C 22.664062 24.472656 25.214844 21.917969 25.214844 18.765625 C 25.214844 15.613281 22.671875 13.058594 19.523438 13.058594 C 17.910156 13.058594 16.449219 13.730469 15.410156 14.816406 C 15.03125 15.214844 14.703125 15.671875 14.449219 16.171875 L 18.140625 16.171875 C 18.429688 16.171875 18.660156 16.40625 18.660156 16.691406 C 18.660156 16.980469 18.429688 17.210938 18.140625 17.210938 L 12.796875 17.210938 L 12.796875 12.542969 C 12.796875 12.25 13.03125 12.015625 13.3125 12.015625 Z M 15.519531 24.84375 C 15.742188 24.9375 16.011719 24.984375 16.328125 24.984375 C 16.648438 24.984375 16.914062 24.9375 17.140625 24.84375 C 17.367188 24.75 17.550781 24.621094 17.695312 24.453125 C 17.835938 24.289062 17.945312 24.097656 18.015625 23.882812 C 18.085938 23.664062 18.128906 23.429688 18.136719 23.183594 C 18.144531 23.0625 18.148438 22.933594 18.148438 22.789062 L 18.148438 22.34375 C 18.148438 22.195312 18.144531 22.0625 18.136719 21.9375 C 18.128906 21.691406 18.085938 21.460938 18.011719 21.246094 C 17.941406 21.027344 17.832031 20.835938 17.683594 20.675781 C 17.542969 20.515625 17.359375 20.390625 17.140625 20.292969 C 16.914062 20.199219 16.652344 20.15625 16.339844 20.15625 C 16.027344 20.15625 15.765625 20.199219 15.542969 20.292969 C 15.316406 20.390625 15.132812 20.515625 14.988281 20.675781 C 14.84375 20.835938 14.734375 21.027344 14.660156 21.246094 C 14.582031 21.460938 14.542969 21.691406 14.535156 21.9375 C 14.53125 22.0625 14.527344 22.195312 14.519531 22.34375 L 14.519531 22.789062 C 14.527344 22.933594 14.53125 23.0625 14.535156 23.183594 C 14.546875 23.429688 14.589844 23.664062 14.660156 23.882812 C 14.730469 24.097656 14.839844 24.289062 14.980469 24.453125 C 15.117188 24.621094 15.296875 24.75 15.519531 24.84375 Z M 16.964844 23.929688 C 16.832031 24.117188 16.621094 24.210938 16.328125 24.210938 C 16.046875 24.210938 15.839844 24.117188 15.703125 23.929688 C 15.5625 23.734375 15.492188 23.476562 15.484375 23.148438 C 15.484375 23.019531 15.484375 22.886719 15.480469 22.757812 L 15.480469 22.355469 C 15.484375 22.21875 15.484375 22.09375 15.484375 21.972656 C 15.492188 21.652344 15.5625 21.398438 15.699219 21.207031 C 15.835938 21.007812 16.046875 20.910156 16.332031 20.910156 C 16.625 20.910156 16.835938 21.007812 16.96875 21.207031 C 17.109375 21.398438 17.179688 21.652344 17.183594 21.972656 C 17.191406 22.09375 17.195312 22.21875 17.195312 22.355469 L 17.195312 22.757812 C 17.195312 22.886719 17.191406 23.019531 17.183594 23.148438 C 17.171875 23.476562 17.097656 23.734375 16.964844 23.929688 Z M 12.804688 24.757812 C 12.804688 24.804688 12.816406 24.84375 12.84375 24.871094 C 12.875 24.902344 12.914062 24.914062 12.964844 24.914062 L 13.574219 24.914062 C 13.617188 24.914062 13.652344 24.902344 13.683594 24.871094 C 13.714844 24.839844 13.730469 24.804688 13.730469 24.757812 L 13.730469 20.375 C 13.730469 20.332031 13.714844 20.289062 13.683594 20.261719 C 13.652344 20.230469 13.617188 20.21875 13.574219 20.21875 L 12.984375 20.21875 C 12.953125 20.21875 12.929688 20.222656 12.902344 20.222656 C 12.875 20.226562 12.847656 20.242188 12.820312 20.261719 L 11.324219 21.425781 C 11.285156 21.453125 11.261719 21.488281 11.253906 21.53125 C 11.25 21.578125 11.257812 21.617188 11.285156 21.660156 L 11.566406 22.023438 C 11.597656 22.0625 11.636719 22.085938 11.675781 22.09375 C 11.714844 22.097656 11.753906 22.089844 11.796875 22.0625 L 12.804688 21.273438 Z M 12.804688 24.757812 " fill-opacity="1" fill-rule="evenodd"/></g></svg>