<svg xmlns="http://www.w3.org/2000/svg" xmlns:xlink="http://www.w3.org/1999/xlink" width="50" zoomAndPan="magnify" viewBox="0 0 37.5 37.499999" height="50" preserveAspectRatio="xMidYMid meet" version="1.0"><defs><clipPath id="112e64fff3"><path d="M 11.824219 11.292969 L 22 11.292969 L 22 26.292969 L 11.824219 26.292969 Z M 11.824219 11.292969 " clip-rule="nonzero"/></clipPath><clipPath id="81497e9608"><path d="M 22 14 L 25.324219 14 L 25.324219 23 L 22 23 Z M 22 14 " clip-rule="nonzero"/></clipPath></defs><g clip-path="url(#112e64fff3)"><path fill="#8a8a8a" d="M 20.875 11.347656 C 20.695312 11.257812 20.484375 11.28125 20.328125 11.410156 L 15.277344 15.578125 L 12.863281 15.578125 C 12.289062 15.578125 11.824219 16.058594 11.824219 16.652344 L 11.824219 20.9375 C 11.824219 21.527344 12.289062 22.007812 12.863281 22.007812 L 15.277344 22.007812 L 20.328125 26.175781 C 20.421875 26.253906 20.535156 26.292969 20.652344 26.292969 C 20.726562 26.292969 20.804688 26.273438 20.875 26.238281 C 21.054688 26.148438 21.171875 25.960938 21.171875 25.757812 L 21.171875 11.828125 C 21.171875 11.625 21.054688 11.4375 20.875 11.347656 Z M 20.875 11.347656 " fill-opacity="1" fill-rule="nonzero"/></g><g clip-path="url(#81497e9608)"><path fill="#8a8a8a" d="M 23.800781 15.003906 C 23.59375 14.796875 23.265625 14.800781 23.066406 15.007812 C 22.863281 15.21875 22.867188 15.558594 23.070312 15.769531 C 23.855469 16.566406 24.285156 17.640625 24.285156 18.792969 C 24.285156 19.945312 23.855469 21.019531 23.070312 21.820312 C 22.867188 22.023438 22.863281 22.363281 23.066406 22.574219 C 23.167969 22.683594 23.300781 22.734375 23.433594 22.734375 C 23.566406 22.734375 23.695312 22.683594 23.800781 22.578125 C 24.785156 21.578125 25.324219 20.234375 25.324219 18.792969 C 25.324219 17.351562 24.785156 16.007812 23.800781 15.003906 Z M 23.800781 15.003906 " fill-opacity="1" fill-rule="nonzero"/></g></svg>